<svg width="163" height="28" viewBox="0 0 163 28" fill="none" xmlns="http://www.w3.org/2000/svg">
<g clip-path="url(#clip0_77_13037)">
<path fill-rule="evenodd" clip-rule="evenodd" d="M23.7852 0.830078H28.1308L24.2957 22.678H19.959L23.7852 0.830078Z" fill="white"/>
<path fill-rule="evenodd" clip-rule="evenodd" d="M15.1342 13.1362H19.4799L17.9306 22.6735H13.585L15.1342 13.1362Z" fill="white"/>
<path fill-rule="evenodd" clip-rule="evenodd" d="M8.9107 12.0751H13.263L11.4093 22.6735H7.05469L8.9107 12.0751Z" fill="white"/>
<path fill-rule="evenodd" clip-rule="evenodd" d="M3.31997 6.35669H7.66559L4.97896 22.6735H0.644531L3.31997 6.35669Z" fill="white"/>
<path d="M88.1891 10.4209L88.9883 6.27423H77.9082L77.1179 10.4209H88.1891ZM76.95 11.3126L74.7402 22.8675H78.7702L79.9545 16.6453H83.9845L84.7838 12.4987H80.7538L80.9777 11.3126H76.95Z" fill="white"/>
<path d="M94.1779 10.1734L94.4801 14.5697H92.2121L93.6696 11.3104H89.6397L84.459 22.8653H88.4889L90.3449 18.7164H94.7577L95.0376 22.8653H99.0675L97.9481 6.27423H91.9032L90.0449 10.4209H94.0749L94.1779 10.1734Z" fill="white"/>
<path d="M106.328 10.4209L109.758 22.8653H115.046L118.203 6.28538H114.173L112.241 16.4424L109.391 6.27423H103.088L102.298 10.4209H106.328ZM102.13 11.3126L99.9316 22.8675H103.962L106.16 11.3126H102.13Z" fill="white"/>
<path d="M125.693 10.1734L125.996 14.5697H123.73L125.185 11.3104H121.155L115.975 22.8653H120.005L121.863 18.7164H126.276L126.549 22.8653H130.579L129.459 6.27423H123.414L121.558 10.4209H125.588L125.693 10.1734Z" fill="white"/>
<path d="M143.618 10.4209L144.408 6.27423H132.319L131.528 10.4209H143.618ZM135.39 11.3126L133.194 22.8541H137.224L139.42 11.3126H135.39Z" fill="white"/>
<path d="M149.715 6.27423H145.685L142.528 22.8653H146.558L149.715 6.27423Z" fill="white"/>
<path d="M158.576 10.4209L158.128 12.7796L162.158 12.7929L163.002 8.34755L161.634 6.27423H153.059L150.912 8.34755L150.518 10.4209H158.576ZM150.348 11.3126L148.557 20.7942L149.925 22.8675L158.488 22.8541L160.646 20.7808L161.502 16.3376H157.445L156.997 18.7075L152.967 18.7186L154.378 11.3126H150.348Z" fill="white"/>
<path d="M41.1282 11.1097L39.458 20.5824L41.173 22.6579H51.2904L53.7397 20.5824L55.2084 12.2891H48.0597L47.3254 16.4357H49.7053L49.3381 18.5091H44.576L45.888 11.1097H41.1282ZM55.5778 10.218L56.3121 6.07135H44.0902L41.6521 8.14468L41.2849 10.218H55.5778Z" fill="white"/>
<path d="M56.558 11.1097L55.9804 14.3691L57.6976 16.4424H65.1351L64.7679 18.5157H55.2461L54.5117 22.6646H66.7113L69.1606 20.5891L70.2621 14.3691L68.5471 12.2958H61.1096L61.3179 11.1097H56.558ZM70.9964 10.218L71.7308 6.07135H59.52L57.0819 8.14468L56.7148 10.218H70.9964Z" fill="white"/>
<path d="M10.9389 25.0366L11.118 24.107H8.63286L8.45375 25.0366H10.9389ZM8.41569 25.2373L7.9209 27.8301H8.81644L9.08287 26.4345H9.97841L10.1575 25.5026H9.26197L9.31123 25.2373H8.41569Z" fill="white"/>
<path d="M12.2844 24.9809L12.3516 25.9685H11.8434L12.1703 25.2373H11.2747L10.1016 27.8301H10.9971L11.4158 26.8982H12.4053L12.468 27.8301H13.3636L13.1106 24.107H11.7538L11.3374 25.0366H12.233L12.2844 24.9809Z" fill="white"/>
<path d="M15.0113 25.0366L15.7792 27.8301H16.9658L17.6755 24.1092H16.78L16.3456 26.3877L15.7053 24.107H14.2926L14.1157 25.0366H15.0113ZM14.0687 25.2373L13.5762 27.8301H14.4717L14.9665 25.2373H14.0687Z" fill="white"/>
<path d="M19.3596 24.9809L19.4268 25.9685H18.9186L19.2455 25.2373H18.3499L17.1768 27.8301H18.0723L18.4887 26.8982H19.4805L19.5432 27.8301H20.4388L20.2037 24.107H18.8469L18.4305 25.0366H19.3261L19.3596 24.9809Z" fill="white"/>
<path d="M23.3802 25.0366L23.5593 24.107H20.8458L20.6689 25.0366H23.3802ZM21.5354 25.2373L21.0406 27.8301H21.9361L22.4421 25.2373H21.5354Z" fill="white"/>
<path d="M24.7509 24.107H23.8554L23.1367 27.8301H24.0323L24.7509 24.107Z" fill="white"/>
<path d="M26.7386 25.0367L26.6356 25.5673H27.5424L27.7327 24.5685L27.4237 24.1048H25.5005L25.0192 24.5685L24.9296 25.0344L26.7386 25.0367ZM24.8916 25.2373L24.4863 27.3641L24.7931 27.8301H26.7162L27.1998 27.3641L27.3924 26.3676H26.4856L26.3849 26.8982H25.4893L25.805 25.2373H24.8916Z" fill="white"/>
<path d="M0.376128 25.1905L0 27.3173L0.385084 27.7832H2.65529L3.20604 27.3173L3.53516 25.4558H1.93213L1.7687 26.3877H2.29259L2.20975 26.8536H1.15077L1.4463 25.1905H0.376128ZM3.61799 24.9898L3.78143 24.0602H1.04107L0.501504 24.5261L0.418667 24.9898H3.61799Z" fill="white"/>
<path d="M3.83983 25.1905L3.70997 25.9217L4.09506 26.3877H5.76524L5.6824 26.8536H3.54653L3.38086 27.7832H6.11898L6.66974 27.3173L6.91602 25.9217L6.53093 25.4558H4.86298L4.91 25.1905H3.83983ZM7.08169 24.9898L7.24513 24.0602H4.50477L3.95848 24.5261L3.87565 24.9898H7.08169Z" fill="white"/>
</g>
<defs>
<clipPath id="clip0_77_13037">
<rect width="163" height="27" fill="white" transform="translate(0 0.830078)"/>
</clipPath>
</defs>
</svg>
