<svg width="80" height="80" viewBox="0 0 80 80" fill="none" xmlns="http://www.w3.org/2000/svg">
<g clip-path="url(#clip0_77_16598)">
<path d="M76.6923 40C76.6923 30.2681 72.8256 20.9348 65.9456 14.0548C59.0642 7.17329 49.7308 3.30811 40.0004 3.30811C30.2686 3.30811 20.9367 7.17477 14.0553 14.0548C7.17378 20.9363 3.30859 30.2681 3.30859 40C3.30859 49.7318 7.17526 59.0637 14.0553 65.9451C20.9367 72.8266 30.2686 76.6918 40.0004 76.6918C49.7323 76.6918 59.0642 72.8251 65.9456 65.9451C72.8271 59.0637 76.6923 49.7318 76.6923 40ZM72.9382 38.1688L73.1575 37.6918C73.2271 37.5377 73.3086 37.3896 73.399 37.2474C73.4182 37.2163 73.4419 37.1866 73.4686 37.1614C73.4775 37.1525 73.4879 37.1451 73.4997 37.1392C73.5056 37.1363 73.5116 37.1348 73.5175 37.1348C73.5279 37.1348 73.5367 37.1377 73.5442 37.1451C73.5501 37.1511 73.556 37.1585 73.559 37.1674C73.5679 37.1866 73.5738 37.2059 73.5767 37.2266C73.5871 37.2963 73.5916 37.3659 73.5901 37.437C73.5901 37.4918 73.5827 37.5466 73.5723 37.6C73.4893 38.0074 73.3619 38.4044 73.193 38.7837C72.7441 39.8963 72.2064 40.9718 71.5842 41.997C70.9204 43.117 69.956 44.0281 68.799 44.6251C68.7116 44.6696 68.6242 44.7111 68.5353 44.7496C67.5767 45.2118 66.479 45.2903 65.4627 44.9718C64.5116 44.6222 63.753 43.8844 63.3812 42.9422C62.9753 41.9155 62.8123 40.8088 62.9042 39.7081L60.9293 42.6607L60.1219 45.877L61.1975 45.874C62.919 45.877 64.6345 46.0933 66.3027 46.52C66.4893 46.5748 66.6701 46.6444 66.8449 46.7289C67.8375 47.1659 68.4819 48.1422 68.4967 49.2266C68.473 50.1214 68.0271 50.9511 67.2938 51.4637C67.239 51.5096 67.1827 51.554 67.1249 51.597C67.113 51.6059 67.0997 51.6148 67.0849 51.6207L67.073 51.6251L67.0656 51.6222C66.6864 51.2163 66.2641 50.8518 65.8093 50.5333C63.9071 49.2785 61.7679 48.4266 59.5234 48.0311C58.8049 50.6355 57.5708 53.0696 55.8938 55.1866C54.9708 56.36 53.7619 57.277 52.3827 57.8474C51.6123 58.1629 50.7664 58.2414 49.9516 58.074C49.076 57.8918 48.3679 57.2518 48.0982 56.4C48.0597 56.28 48.0301 56.157 48.0079 56.034C47.8997 55.3022 47.9442 54.5555 48.1397 53.8414C49.0227 50.7155 51.2834 48.1644 54.2804 46.9126C54.9308 46.6429 55.6049 46.4311 56.2923 46.2785L56.3145 46.2133L56.519 45.5007L56.9175 43.9748C56.8582 44.0963 56.7812 44.2088 56.6908 44.3096C56.4775 44.6163 56.2034 44.877 55.8864 45.0755C55.4834 45.3348 54.9842 45.3926 54.5338 45.2311C54.1427 45.0726 53.8093 44.7985 53.5797 44.4444C53.2182 43.8888 52.9797 43.2637 52.8804 42.6088C52.6849 42.9748 52.4804 43.3377 52.2686 43.6948C52.2286 43.7629 52.1871 43.8311 52.1427 43.8977C51.7975 44.4637 51.2967 44.917 50.7012 45.2044C50.2938 45.4014 49.8271 45.437 49.3945 45.3051C48.9842 45.16 48.6419 44.8681 48.433 44.4859C48.1827 44.0326 48.0301 43.5303 47.9886 43.0133C47.9338 43.2044 47.873 43.394 47.8064 43.5807C47.6804 43.9703 47.4923 44.3377 47.2508 44.6681C47.0538 44.9407 46.8079 45.1763 46.5279 45.3629C46.0627 45.6814 45.4701 45.7496 44.9456 45.5437C44.513 45.3555 44.1471 45.0429 43.8953 44.6444C43.4849 43.9955 43.2256 43.2637 43.1367 42.5007C42.873 43.0355 42.5901 43.5585 42.2879 44.0711C42.2079 44.2103 42.119 44.3451 42.0242 44.4755C41.676 44.9837 41.1886 45.3822 40.6212 45.6222C40.1797 45.8103 39.679 45.8044 39.2404 45.6074C38.8641 45.4148 38.5604 45.1037 38.3797 44.7214C38.1367 44.2133 38.0004 43.6607 37.9782 43.0977C37.7901 43.4903 37.5812 43.8726 37.3545 44.2444C37.1945 44.5259 37.0064 44.7896 36.7916 45.0311C36.4271 45.4651 35.9501 45.7896 35.4123 45.9688C35.0345 46.0918 34.6256 46.0726 34.2612 45.9126C33.9175 45.7422 33.6419 45.4622 33.476 45.1185C33.2582 44.6681 33.1323 44.1777 33.1041 43.6785C33.0523 42.6488 33.156 41.6177 33.4123 40.6192L34.0641 37.9007L34.439 36.4414C34.7501 35.3007 35.0108 34.1451 35.2167 32.9807C35.2479 32.7955 35.2612 32.6088 35.2582 32.4222C35.2582 32.3629 35.2479 32.3051 35.2301 32.2488C35.2227 32.2266 35.2123 32.2059 35.1975 32.1881C35.1767 32.1614 35.1456 32.1466 35.1116 32.1466C35.0893 32.1466 35.0671 32.1511 35.0464 32.1585C35.0034 32.1748 34.9634 32.197 34.9264 32.2251C34.8093 32.3125 34.7012 32.4118 34.6034 32.5185C34.2419 32.8903 33.9412 33.317 33.7116 33.7822C33.199 34.8607 32.8049 35.9896 32.5323 37.1525L30.2923 46.5051C30.2064 46.5051 30.1219 46.4992 30.0375 46.4844C29.6671 46.4696 29.2997 46.4059 28.9456 46.2948C28.4153 46.1333 27.9827 45.7481 27.7634 45.24C27.5841 44.7985 27.4997 44.3244 27.5145 43.8474C27.3871 44.1081 27.2449 44.36 27.0879 44.6029C27.0538 44.6622 27.0197 44.72 26.9841 44.7763C26.6449 45.3511 26.1441 45.8148 25.5441 46.1096C25.1293 46.3111 24.6538 46.3481 24.2138 46.2089C23.8049 46.0577 23.4641 45.7629 23.2582 45.3777C23.0034 44.9066 22.8523 44.3881 22.8138 43.8533C22.7412 42.7763 22.8449 41.6948 23.119 40.6518L23.556 38.8237C23.4879 38.8992 23.4182 38.9733 23.3456 39.0444C22.9797 39.4251 22.5812 39.7733 22.153 40.0844C21.7175 40.4163 21.2153 40.6488 20.6804 40.7659C19.156 43.0192 17.2108 44.9585 14.953 46.477C14.7664 46.6014 14.5723 46.7155 14.3738 46.8192C13.9323 47.0681 13.4449 47.2207 12.9412 47.2696C12.5812 47.3037 12.2212 47.2163 11.916 47.0237C11.6167 46.8148 11.3871 46.52 11.2597 46.1777C11.0804 45.7007 10.9856 45.194 10.9827 44.6844C10.9841 43.4177 11.1575 42.157 11.4953 40.9363L12.8849 35.5555C13.2538 34.157 13.5456 32.7392 13.759 31.3096C13.9308 30.2755 13.9708 29.2251 13.8745 28.1822C13.8345 27.76 13.716 27.3496 13.5279 26.9688C13.3827 26.6785 13.1456 26.4444 12.8523 26.3022C12.559 26.1777 12.2375 26.1392 11.9234 26.1881C11.4567 26.2607 11.0064 26.4103 10.5871 26.6281C10.2241 26.8163 9.89378 27.0637 9.60933 27.3585C8.82563 28.2014 8.21378 29.1896 7.8123 30.2681C7.10267 31.9763 6.87748 33.8474 7.16193 35.674C7.42267 37.3377 8.46415 38.7748 9.96489 39.5377C10.039 39.5703 10.1041 39.6192 10.1575 39.68C10.2182 39.7481 10.2419 39.8429 10.2197 39.9318C10.2138 39.957 10.2049 39.9807 10.1916 40.0044H10.1856C10.1338 40.0133 10.0804 40.0118 10.0286 40.0044C9.796 39.9674 9.5723 39.8874 9.37082 39.7659C9.22415 39.6903 9.08193 39.6074 8.94415 39.5185C7.74859 38.6963 6.91896 37.44 6.636 36.0163C6.0997 33.3259 6.61971 30.5303 8.08785 28.2133C8.71452 27.1777 9.62119 26.3407 10.7027 25.797L11.0064 25.6622C11.8982 25.2474 12.8716 25.04 13.8553 25.0518C14.9382 25.0651 15.9486 25.6 16.5693 26.4874C17.0701 27.2474 17.3738 28.1185 17.4553 29.0251C17.5975 30.6755 17.4419 32.3377 16.9975 33.9333L14.7575 42.7526L14.4597 43.9407C14.3204 44.4577 14.2108 44.9822 14.1323 45.5111C14.113 45.6429 14.1101 45.7777 14.1234 45.9126C14.1293 45.9659 14.1441 46.0192 14.1679 46.0681C14.1871 46.1051 14.2167 46.1363 14.2553 46.154C14.2908 46.1703 14.3293 46.1763 14.3679 46.1733C14.4271 46.1688 14.4864 46.1555 14.5427 46.1333C14.6671 46.0829 14.7871 46.0207 14.8997 45.9481C15.0286 45.8711 15.1486 45.7792 15.2567 45.6755C15.5767 45.3555 15.8597 44.9985 16.0982 44.6133C17.0419 43.0385 17.8182 41.3703 18.4167 39.634C18.156 39.2177 17.9545 38.7644 17.8197 38.2918C17.6908 37.8548 17.6064 37.4044 17.5693 36.9496C17.4079 34.4207 17.7427 31.8844 18.5575 29.4829C18.8404 28.6133 19.2597 27.794 19.8019 27.0563C20.0879 26.6681 20.4567 26.3496 20.8834 26.1244C21.1975 25.9629 21.5382 25.8563 21.8893 25.8103C22.3871 25.7392 22.8908 25.9051 23.2479 26.2607C23.513 26.5363 23.713 26.8666 23.8345 27.2296C24.0597 27.9125 24.1723 28.6281 24.1708 29.3481C24.1456 31.3496 23.8404 33.3392 23.2656 35.2563C22.7886 36.9925 22.0523 38.6459 21.0819 40.1629C21.1471 40.1333 21.2093 40.1022 21.273 40.0696C22.0508 39.6281 22.753 39.0622 23.3501 38.3955C23.4849 38.2488 23.6241 38.1051 23.7664 37.9674L24.0316 36.8918L24.1116 36.5837C24.2967 35.8296 24.6538 35.1303 25.1545 34.5363C25.596 34.0118 26.233 33.6918 26.9175 33.6474C27.319 33.6222 27.7175 33.7214 28.0582 33.9348C28.2049 34.0311 28.3456 34.1348 28.4819 34.2459L28.4775 34.2666L26.4123 42.4666L26.2686 43.1214C26.1782 43.52 26.1219 43.9259 26.0997 44.3333C26.0953 44.4266 26.1027 44.52 26.119 44.6103C26.1249 44.6474 26.1382 44.6814 26.156 44.714C26.1664 44.7333 26.1827 44.7496 26.2019 44.76C26.2241 44.7703 26.2479 44.7733 26.2716 44.7674C26.2967 44.7614 26.3219 44.7511 26.3427 44.7363C26.3886 44.7066 26.4301 44.6711 26.4686 44.6311C26.5975 44.4888 26.7116 44.3333 26.8093 44.1688C27.1116 43.6607 27.3856 43.1377 27.6316 42.6014C27.6671 42.3096 27.7249 42.0192 27.8019 41.7363L29.0775 36.0918L29.8345 32.7022C29.996 31.9688 30.1219 31.2281 30.2108 30.4814C30.2775 30.474 30.3441 30.4622 30.4093 30.4444C30.7308 30.3866 31.0597 30.3792 31.3841 30.4251C32.2079 30.517 32.9056 31.0725 33.1782 31.8533C33.356 32.397 33.4079 32.9748 33.3293 33.5422C33.6167 32.9718 33.9901 32.4503 34.4345 31.9925C34.5634 31.8696 34.6982 31.7526 34.839 31.6444C35.2167 31.3377 35.6642 31.1259 36.1412 31.0281C36.5634 30.9407 37.0019 31.0326 37.353 31.2829C37.6464 31.5126 37.8701 31.8192 38.0004 32.1688C38.2004 32.7066 38.3027 33.2755 38.3041 33.8488C38.3012 35.237 38.1056 36.6177 37.7249 37.9525C37.3397 39.3259 37.0004 40.7111 36.7042 42.1066C36.636 42.4074 36.5738 42.7111 36.5175 43.0148C36.4493 43.3511 36.4079 43.6918 36.3945 44.0355C36.3916 44.12 36.399 44.2044 36.4167 44.2874C36.4227 44.3155 36.433 44.3422 36.4479 44.3659C36.4567 44.3807 36.4701 44.3926 36.4849 44.4014C36.5042 44.4118 36.5279 44.4148 36.5501 44.4103C36.5738 44.4044 36.5975 44.394 36.6182 44.3792C36.6627 44.3481 36.7027 44.3126 36.7382 44.274C36.8641 44.1303 36.9767 43.9763 37.073 43.8118C37.4182 43.2266 37.7308 42.6207 38.0079 42.0014C38.0553 41.3674 38.159 40.7392 38.319 40.1244L40.7575 30.5896L39.8123 30.2903C37.1056 29.3733 34.3708 28.5407 31.6138 27.794C30.9664 27.6251 30.3027 27.5244 29.6345 27.4948C29.3471 27.4814 29.0612 27.5229 28.7886 27.6163C28.5264 27.7066 28.3116 27.9007 28.196 28.1525L28.1827 28.1807C28.1175 28.314 28.0982 28.4666 28.1293 28.6118C28.1649 28.7481 28.2316 28.8755 28.3264 28.9822C28.4671 29.1392 28.6227 29.2844 28.7901 29.4118C28.9886 29.5614 29.1767 29.7244 29.353 29.8992C29.4656 30.0118 29.5545 30.1466 29.6138 30.2948C29.6775 30.4074 29.7264 30.5288 29.7604 30.6548C29.8434 30.9303 29.8108 31.2281 29.6701 31.4785C29.4108 31.96 28.9812 32.3259 28.4641 32.5022C27.919 32.6726 27.3427 32.7126 26.7797 32.6163C26.4197 32.5688 26.073 32.4444 25.7649 32.2518C25.3575 32.0074 25.0493 31.6296 24.8923 31.1822C24.7886 30.8844 24.8153 30.5585 24.9649 30.2814C25.3293 29.634 25.9841 29.2029 26.7219 29.1244C26.7219 28.9866 26.7264 28.8503 26.7397 28.7125C26.753 28.514 26.8049 28.32 26.8908 28.1392C27.0093 27.874 27.1693 27.6281 27.3649 27.4133C27.836 26.9288 28.4256 26.5763 29.0745 26.3911C30.1427 26.0859 31.2523 25.9511 32.3619 25.9896C35.439 26.117 38.4923 26.5866 41.4656 27.3925C41.6582 26.5244 41.8182 25.6488 41.9471 24.7688C42.0153 24.7644 42.0819 24.7511 42.1456 24.7318C42.4701 24.6666 42.8034 24.6518 43.1323 24.6888C43.9664 24.7614 44.676 25.3288 44.9308 26.1259C45.1116 26.7051 45.1575 27.3185 45.0656 27.917C45.5042 27.8844 45.9397 27.8133 46.3664 27.7037C46.6271 27.64 46.8819 27.5496 47.1249 27.434C47.153 27.4207 47.1797 27.4044 47.2049 27.3866L47.2197 27.3733C47.3501 27.7422 47.4197 28.1288 47.4256 28.52C47.4627 29.434 46.999 30.2948 46.2167 30.7674C45.6227 31.0992 44.953 31.2711 44.273 31.2651L41.6079 41.9363L41.4642 42.5911C41.3738 42.9896 41.3175 43.3955 41.2953 43.8029C41.2908 43.8963 41.2982 43.9896 41.3145 44.08C41.3204 44.117 41.3338 44.1511 41.3516 44.1837C41.3619 44.2029 41.3782 44.2192 41.3975 44.2296C41.4182 44.24 41.4434 44.2429 41.4671 44.237C41.4923 44.2311 41.5175 44.2207 41.5382 44.2059C41.5842 44.1748 41.6256 44.1407 41.6642 44.1007C41.793 43.9585 41.9071 43.8044 42.0049 43.6385C42.4004 42.9703 42.7516 42.2755 43.0538 41.5585C43.0256 40.2637 43.1782 38.9718 43.5101 37.7185C43.8064 36.4459 44.2582 35.2148 44.8553 34.0533C45.3693 33.0074 46.1116 32.0888 47.0301 31.3703C47.5827 30.9348 48.2523 30.6726 48.9545 30.6177C49.5901 30.5674 50.2123 30.8237 50.6286 31.3081C50.753 31.1051 50.8953 30.914 51.0567 30.7392C51.796 29.8903 53.0375 29.6933 54.0019 30.2725C54.119 30.3437 54.2316 30.4192 54.3427 30.4977L51.593 41.5851L51.436 42.3051C51.353 42.6814 51.3027 43.0651 51.2849 43.4503C51.2819 43.5422 51.2893 43.6355 51.3071 43.7259C51.3145 43.7614 51.3279 43.797 51.3456 43.8281C51.3575 43.8474 51.3738 43.8622 51.393 43.8726C51.4153 43.8829 51.4404 43.8844 51.4627 43.8785C51.4879 43.8726 51.5116 43.8607 51.5338 43.8459C51.5797 43.8148 51.6212 43.7777 51.6567 43.7348C51.7827 43.5881 51.8938 43.4281 51.9856 43.2592C52.2775 42.7792 52.5427 42.2844 52.7782 41.7748C52.7056 40.2829 52.8686 38.7881 53.2642 37.3466C53.5753 36.0148 54.0582 34.7303 54.7012 33.5229C55.2227 32.5007 55.9753 31.6148 56.8982 30.9333C57.4345 30.5377 58.073 30.3081 58.7367 30.2696C59.3693 30.2326 59.9812 30.5022 60.3797 30.9955C60.6079 30.6118 60.916 30.28 61.2804 30.0237C62.0345 29.5318 63.0019 29.5066 63.7812 29.957C63.8834 30.0163 63.9871 30.0711 64.0923 30.1244L63.3279 33.0533L61.2301 41.4563L63.036 38.4681C63.1116 37.9822 63.2093 37.4992 63.3279 37.0222L63.3842 36.7896C63.8582 34.5718 65.0582 32.5748 66.796 31.1155C67.9427 30.1585 69.3738 29.6088 70.8671 29.554C71.4256 29.5363 71.9797 29.6548 72.4804 29.8992C72.8138 30.0622 73.0849 30.3303 73.2523 30.6622C73.3442 30.8429 73.3975 31.04 73.4079 31.2414C73.4182 31.6118 73.3516 31.9822 73.2138 32.3259C72.9338 33.0133 72.5604 33.6577 72.1042 34.2429C70.4967 36.2577 68.6108 38.034 66.5042 39.5185L66.4612 39.9466C66.3679 40.797 66.4167 41.6577 66.6093 42.4933C66.6997 42.8829 66.876 43.2488 67.1264 43.5614C67.3575 43.8503 67.6997 44.0281 68.0701 44.0503C68.396 44.0577 68.7175 43.9763 69.0019 43.8163C69.7234 43.4029 70.3442 42.8355 70.8212 42.1555C71.6834 40.9155 72.396 39.5763 72.9427 38.1674M56.7382 16.0948L56.6627 16.2325C56.6567 16.2429 56.6538 16.2548 56.6538 16.2651C56.6523 16.2977 56.6567 16.3303 56.6686 16.36C56.676 16.3837 56.6893 16.4044 56.7056 16.4237C56.7116 16.4311 56.719 16.437 56.7279 16.4414L56.879 16.5259L56.5634 17.0859C56.0004 16.7644 55.4271 16.4622 54.8434 16.1807L55.1279 15.6044L55.3145 15.6963C55.3264 15.7022 55.3397 15.7037 55.3516 15.7051C55.3842 15.7051 55.4182 15.6977 55.4479 15.6844C55.4686 15.6755 55.4864 15.6637 55.5027 15.6488C55.5086 15.6429 55.513 15.637 55.5175 15.6296L56.8242 13.077C57.2434 13.2859 57.6567 13.5037 58.0656 13.7318L57.0834 15.48L57.3812 15.6459L57.0316 16.2592L56.7397 16.0963M55.1738 14.5022L55.7545 14.7837L55.436 15.4148C55.0064 15.2 54.5723 14.9955 54.1338 14.8014L54.4701 14.0577C55.1634 13.7214 55.8716 13.4133 56.5901 13.1363L56.1412 14.0177L55.1827 14.4829L55.1738 14.5022ZM52.5693 12.0074L52.833 11.3007C53.1501 11.4192 53.436 11.6088 53.6671 11.8548C53.9353 12.1555 54.0553 12.56 53.9945 12.957C53.9634 13.1851 53.9012 13.4074 53.8064 13.6177C53.6686 13.9718 53.4449 14.2859 53.1575 14.5318C52.8345 14.7851 52.4286 14.9081 52.0182 14.8785C51.7545 14.8637 51.4938 14.8163 51.2419 14.7363L51.519 13.9644C51.6271 13.997 51.7427 14.0014 51.8538 13.9748C51.9664 13.9437 52.0656 13.88 52.1427 13.7925C52.2582 13.6607 52.3516 13.5111 52.4212 13.3511C52.4464 13.2977 52.4701 13.2429 52.4923 13.1881C52.5871 12.9703 52.6612 12.7437 52.713 12.5111C52.7308 12.4266 52.7367 12.3392 52.7293 12.2518C52.7234 12.1866 52.6982 12.1244 52.6553 12.074C52.6316 12.0474 52.6019 12.0237 52.5693 12.0059M52.1871 13.4414C51.9397 13.4814 51.6849 13.4563 51.4493 13.3688C51.193 13.2888 50.9634 13.1377 50.7901 12.9318C50.6123 12.7022 50.5442 12.4074 50.6034 12.1229C50.6153 12.0607 50.6301 11.9985 50.6493 11.9377C50.7782 11.4977 51.153 11.1748 51.6064 11.114C51.9634 11.0666 52.3264 11.1066 52.6627 11.234L52.4005 11.9451C52.3101 11.9274 52.2167 11.9481 52.1427 12.0044C52.0804 12.0548 52.0316 12.1185 51.9975 12.1911C51.9767 12.2325 51.959 12.274 51.9442 12.317C51.916 12.3911 51.9012 12.4696 51.8997 12.5481C51.8997 12.6488 51.9486 12.7422 52.0301 12.8C52.079 12.834 52.1308 12.8607 52.1871 12.88C52.2567 12.9066 52.3279 12.9244 52.4019 12.9363L52.1871 13.4414ZM51.3604 13.9081L51.0879 14.6814C50.7767 14.5777 50.4745 14.4459 50.1842 14.2903C50.153 14.2725 50.1234 14.2533 50.0953 14.234L50.3545 13.4177L50.9382 13.6044C50.9871 13.6859 51.0553 13.7555 51.1367 13.8029C51.2064 13.8459 51.2819 13.8814 51.3604 13.9081ZM48.319 10.7511L48.4938 10.0177C48.8212 10.0977 49.1279 10.2518 49.3871 10.4666C49.6893 10.7318 49.8582 11.1185 49.8449 11.52C49.8419 11.7496 49.8064 11.9792 49.7397 12.1985C49.6464 12.5659 49.4627 12.9051 49.2064 13.1851C48.916 13.4755 48.5293 13.6474 48.1204 13.6666C47.8567 13.6844 47.593 13.6681 47.3353 13.6192L47.516 12.8192C47.6271 12.8385 47.7427 12.8281 47.8493 12.7896C47.956 12.7451 48.0479 12.6696 48.113 12.5733C48.2108 12.4281 48.2864 12.2696 48.3353 12.1007C48.353 12.0444 48.3708 11.9881 48.3856 11.9303C48.4523 11.7022 48.4982 11.4681 48.5219 11.2325C48.5293 11.1466 48.5249 11.0592 48.5056 10.9733C48.4923 10.9096 48.4582 10.8503 48.4108 10.8059C48.3827 10.7822 48.3516 10.7629 48.319 10.7496M48.1145 12.2207C47.8745 12.2903 47.6197 12.2963 47.3753 12.237C47.1116 12.1896 46.8656 12.0666 46.6701 11.8829C46.4656 11.677 46.3634 11.3925 46.3871 11.1037C46.3901 11.04 46.3975 10.9777 46.4093 10.914C46.4819 10.4622 46.8153 10.0963 47.2582 9.9807C47.6049 9.89033 47.9693 9.88736 48.319 9.97181L48.1442 10.7096C48.0538 10.7022 47.9634 10.7348 47.8982 10.7985C47.8434 10.8563 47.8019 10.9259 47.7767 11.0014C47.7619 11.0444 47.7486 11.0888 47.7397 11.1318C47.7204 11.2088 47.7145 11.2874 47.7234 11.3674C47.7353 11.4666 47.7945 11.554 47.8834 11.6014C47.9353 11.6296 47.9901 11.6503 48.0479 11.6622C48.119 11.68 48.193 11.6888 48.2671 11.6918L48.1145 12.2192M41.9101 59.3437C42.7086 59.3066 43.4938 59.5585 44.119 60.0563C44.233 60.1407 44.3442 60.2296 44.4493 60.3244C44.5649 60.434 44.7027 60.517 44.8523 60.5688C45.0508 60.6355 45.2686 60.5896 45.4227 60.4488C45.556 60.3274 45.6582 60.1748 45.7219 60.0059C45.756 59.9214 45.7842 59.834 45.8064 59.7451C45.8153 59.7111 45.8301 59.677 45.8508 59.6488C45.8656 59.6266 45.8864 59.6103 45.9116 59.6014C45.9353 59.594 45.9619 59.594 45.9856 59.6014C46.0197 59.6118 46.0523 59.6281 46.0804 59.6503C46.1279 59.6844 46.1708 59.7259 46.2079 59.7703C46.1975 60.1081 46.119 60.44 45.9797 60.7466C45.6849 61.4533 45.1812 62.0533 44.5353 62.4637C43.8716 62.8859 43.0242 62.8859 42.3604 62.4622C41.7693 62.0814 41.1249 61.7926 40.4464 61.6059C39.9323 61.4637 39.3871 61.4829 38.8849 61.6622C38.793 61.6963 38.7027 61.7377 38.6138 61.7822C38.4879 61.8429 38.3397 61.8414 38.2153 61.7777C38.0997 61.72 37.999 61.6385 37.9175 61.5377C37.8879 61.5037 37.8612 61.4681 37.836 61.4296C37.8464 61.1066 37.9086 60.7881 38.0212 60.4844C38.3767 59.5422 38.8701 58.6577 39.4864 57.8607C40.6227 56.3407 41.9812 55.0014 43.5175 53.8874C44.2656 53.3792 44.8967 52.717 45.3693 51.9451C45.6286 51.5214 45.7723 51.037 45.7871 50.5407C45.8049 49.8859 45.399 49.2963 44.7842 49.074C44.4686 48.9555 44.1323 48.8992 43.7945 48.9096C43.2493 48.9037 42.7101 49.0251 42.2212 49.2666C41.5412 49.6 41.1412 50.32 41.2182 51.074C41.2804 51.6577 41.4908 52.2148 41.8316 52.6918C41.9338 52.8444 42.0434 52.9925 42.1604 53.1333C42.3041 53.314 42.3649 53.5466 42.3279 53.7748C42.2775 54.0785 42.1323 54.36 41.913 54.5763C41.7782 54.717 41.6241 54.84 41.4582 54.9422C40.9293 55.2814 40.2686 55.3407 39.6893 55.1007L39.673 55.0933C39.2582 54.5333 39.033 53.8577 39.0301 53.1614C38.9871 51.8577 39.479 50.594 40.3916 49.6622C41.3041 48.7303 42.5575 48.2133 43.8612 48.2296H43.9975C45.1456 48.197 46.2227 48.7866 46.8138 49.7718C47.3871 50.7985 47.5234 52.0118 47.1916 53.1377C46.8716 54.2963 46.2049 55.3288 45.279 56.0963C44.1827 56.9763 42.9812 57.7155 41.7012 58.2963C41.0197 58.6133 40.3575 58.9733 39.7204 59.3733C39.3412 59.6133 39.0138 59.9244 38.756 60.2903C38.6182 60.4977 38.5204 60.7303 38.4671 60.9748C39.2271 60.3926 40.0641 59.92 40.9545 59.5688C41.2627 59.4548 41.5842 59.3777 41.9116 59.3407M47.3545 12.7792L47.1767 13.5807C46.8553 13.5155 46.5412 13.4222 46.2345 13.3022C46.2019 13.2888 46.1708 13.2726 46.1397 13.2563L46.2982 12.4133L46.8982 12.5288C46.9545 12.6029 47.0286 12.6622 47.1145 12.6992C47.1916 12.7348 47.2716 12.7614 47.3545 12.7792ZM43.2538 12.2666L43.5693 12.2977C43.5856 12.2977 43.6019 12.2977 43.6167 12.2903C43.6627 12.2725 43.7012 12.2414 43.7279 12.2C43.7353 12.1896 43.7382 12.1792 43.7412 12.1674L43.956 10.237L43.6167 10.3644L43.4004 10.3437L43.4671 9.65774L44.4212 9.35996L45.4642 9.49774L45.0345 12.3288C45.0345 12.3407 45.0345 12.3525 45.0375 12.3629C45.0464 12.394 45.0627 12.4222 45.0834 12.4459C45.0982 12.4637 45.116 12.4785 45.1353 12.4903C45.1427 12.4948 45.153 12.4977 45.1619 12.4992L45.4301 12.5407L45.3264 13.1748C44.6182 13.0592 43.9056 12.9688 43.1901 12.9051L43.2523 12.2666M39.3975 9.82366L39.3856 9.10218C39.9397 9.09181 40.4953 9.09477 41.0493 9.11255L41.0138 10.2977L40.2227 10.2844L40.1086 9.81922L39.396 9.82366M39.4434 12.7585L39.4316 12.0577L40.1204 12.0533L40.2301 11.5007L41.0271 11.5155L40.9901 12.7688C40.4745 12.7511 39.959 12.7481 39.4434 12.7585ZM36.5782 47.1822C37.0449 47.4814 37.5427 47.7288 38.0641 47.917C38.4271 48.0474 38.8182 48.0814 39.199 48.0118C39.5723 47.9244 39.919 47.7437 40.2034 47.4874C40.2345 47.4607 40.2716 47.44 40.3116 47.4251C40.3397 47.4148 40.3708 47.4133 40.4004 47.4222C40.4301 47.4311 40.4567 47.4503 40.4745 47.4755C40.5012 47.5111 40.5204 47.5511 40.5323 47.5926C40.5397 47.6148 40.5442 47.637 40.5486 47.6607C40.5293 47.7392 40.5012 47.8148 40.4641 47.8888C40.1382 48.5392 39.6434 49.0903 39.033 49.4844C38.7397 49.6696 38.4034 49.7748 38.0553 49.7911C37.2419 49.8488 36.4301 49.6548 35.7308 49.237C35.6404 49.1822 35.5516 49.1244 35.4656 49.0622C35.3338 48.9629 35.1945 48.877 35.0464 48.8059C34.9738 48.7718 34.8967 48.7496 34.8167 48.7437C34.719 48.7377 34.6227 48.7748 34.556 48.8474C34.4967 48.9126 34.4479 48.9881 34.4153 49.0696C34.3841 49.1422 34.356 49.2163 34.3353 49.2933L33.6834 51.3259C34.7071 51.4444 35.6908 51.7911 36.5634 52.3407C37.3338 52.8281 37.8671 53.6118 38.0404 54.5066C38.1397 55.1303 38.0938 55.7674 37.9042 56.3703C37.6464 57.36 37.0449 58.2251 36.2093 58.8148C35.1812 59.5037 33.8834 59.6533 32.7279 59.2133C32.5856 59.154 32.4508 59.0829 32.3219 58.997C31.8775 58.6726 31.5708 58.1926 31.4627 57.6533C31.2108 56.4459 31.5367 55.1896 32.3442 54.2577C32.4597 54.1318 32.5871 54.0177 32.7249 53.9155C33.039 53.6755 33.4241 53.5437 33.8212 53.5437C34.2123 53.5481 34.5723 53.7629 34.759 54.1081C35.0123 54.5259 34.9886 55.0563 34.7012 55.4503C34.479 55.7718 34.0953 55.9437 33.7071 55.8933C33.673 55.8874 33.6404 55.88 33.6079 55.8711C33.3056 55.7674 32.9767 55.7763 32.6804 55.8948C32.2953 56.074 32.0138 56.4207 31.9175 56.834C31.716 57.5585 32.0138 58.3288 32.6493 58.7289C32.9071 58.9037 33.2197 58.9763 33.5279 58.9318C33.8049 58.877 34.0597 58.7451 34.2627 58.5496C34.5856 58.24 34.8449 57.8696 35.0241 57.4592C35.1901 57.1022 35.3264 56.7303 35.4286 56.3511C35.6404 55.6311 35.7279 54.88 35.6864 54.1303C35.6582 53.6103 35.4775 53.1111 35.1693 52.6918C34.836 52.2844 34.3812 51.9955 33.8701 51.8681C33.6701 51.8118 33.4671 51.7718 33.2627 51.7466C33.2523 51.7466 33.2434 51.7437 33.2345 51.7392C33.2167 51.7303 33.2004 51.7185 33.1856 51.7037C33.1353 51.6533 33.1012 51.5881 33.0893 51.517C33.0819 51.477 33.0893 51.437 33.1086 51.4014L33.8375 49.234C34.0004 48.7126 34.196 48.2029 34.4256 47.7081C34.5293 47.4874 34.6686 47.2844 34.8345 47.1066C35.0197 46.9096 35.279 46.8014 35.5471 46.8088C35.7767 46.8207 36.0004 46.88 36.2064 46.9822C36.3353 47.0414 36.4597 47.1081 36.5797 47.1822M39.4212 11.2637L39.4079 10.5214L40.1693 10.517L40.1649 11.2592L39.4197 11.2637M37.6523 12.1881L37.8123 12.1777C37.8286 12.1763 37.8449 12.1703 37.8597 12.1614C37.8997 12.1363 37.9323 12.0992 37.9516 12.0563C37.956 12.0459 37.959 12.034 37.959 12.0222L37.836 9.97477C37.836 9.96292 37.8316 9.95255 37.8256 9.94218C37.8123 9.91848 37.793 9.89625 37.7708 9.87996C37.7471 9.8607 37.7204 9.84736 37.6908 9.84144C37.6819 9.83848 37.6716 9.83848 37.6612 9.83848L37.4893 9.84885L37.4434 9.18218C38.0286 9.1407 38.6153 9.11403 39.2019 9.10514L39.279 12.7614C38.7501 12.7703 38.2227 12.7925 37.6953 12.8296L37.6523 12.1881ZM35.7264 13.0755L35.6241 12.2829C35.873 12.2296 36.0864 12.0696 36.2093 11.8474L36.8597 11.7837L36.9308 12.5688C36.5738 12.8281 36.1619 13.0014 35.7264 13.0755ZM35.6642 10.1051L35.5723 9.35255L36.6079 9.24588L36.7279 10.5466L35.8627 10.6355L35.6642 10.1051ZM33.2538 11.5955C33.1649 11.2148 33.1886 10.8148 33.3234 10.4474C33.4864 10.0592 33.796 9.75255 34.1856 9.59551C34.4256 9.49181 34.6804 9.42218 34.9412 9.39107C35.0893 9.36885 35.2404 9.36292 35.3916 9.37625L35.4879 10.1274L35.3412 10.1466C35.2004 10.16 35.0656 10.2044 34.9441 10.2755C34.8093 10.3629 34.713 10.4992 34.676 10.6577C34.6345 10.8326 34.6271 11.0118 34.6523 11.1896C34.6567 11.2281 34.6612 11.2666 34.6671 11.3051C34.6938 11.514 34.7501 11.7185 34.836 11.9125C34.8893 12.0325 34.9723 12.1363 35.079 12.2118C35.1886 12.2814 35.316 12.3155 35.4449 12.3081H35.4582L35.5634 13.0992L35.5367 13.1037C35.1441 13.1688 34.7427 13.1422 34.3619 13.0251C33.9234 12.877 33.5738 12.5422 33.4079 12.1111C33.3382 11.9451 33.2879 11.7733 33.2538 11.597M29.9975 12.3392L29.4716 10.5866L29.6301 10.5407C30.6775 11.3763 31.6701 12.2785 32.6019 13.2414L32.6701 13.5481C32.3086 13.6266 31.9486 13.7111 31.5916 13.8029C31.0775 13.2963 30.5456 12.8088 29.9975 12.3407M32.5338 12.9363C32.119 12.5125 31.6923 12.0992 31.2553 11.6992L31.039 10.8577L30.6864 10.9466L30.513 10.3007C31.0641 10.1555 31.6182 10.0251 32.1767 9.91107L32.3204 10.5644L32.1693 10.5955C32.1545 10.6 32.1412 10.6059 32.1293 10.6148C32.0923 10.6429 32.0641 10.6829 32.0493 10.7274C32.0449 10.7392 32.0434 10.7525 32.0449 10.7659V10.7733L32.5353 12.9363M30.9634 50.2118C30.9634 50.2192 30.959 50.2266 30.9545 50.2326C30.9501 50.2385 30.9441 50.2414 30.9382 50.2429C30.9308 50.2459 30.9219 50.2459 30.913 50.2459C30.8953 50.2459 30.8775 50.2414 30.8597 50.237C30.7901 50.2163 30.7204 50.1926 30.6523 50.1659C30.2923 50.037 29.919 49.9555 29.5382 49.9229C26.3708 49.6681 23.1842 49.9126 20.0938 50.6474C18.9856 50.9229 17.9308 51.3792 16.9738 52.0014C16.2716 52.4563 15.716 53.1051 15.3738 53.8696C15.3367 53.9585 15.3041 54.0474 15.2745 54.1392C15.2597 54.1392 15.2449 54.1392 15.2301 54.1363C15.2019 54.1303 15.1767 54.114 15.1575 54.0933L15.1412 54.0755C14.5027 53.6666 14.1471 52.9333 14.2212 52.1777C14.2686 51.7659 14.5012 51.397 14.8508 51.1748C15.759 50.6548 16.7382 50.2726 17.7575 50.04C21.4449 49.2296 25.2345 48.9792 28.9975 49.2948L29.3264 49.3377C29.7175 49.3926 30.1012 49.4933 30.4701 49.6355C30.5975 49.6859 30.716 49.7555 30.8212 49.8414C30.8775 49.8888 30.9234 49.9466 30.953 50.0148C30.9782 50.077 30.9812 50.1466 30.9619 50.2118M28.9841 13.8992L29.1382 13.8488C29.1545 13.8429 29.1679 13.834 29.1797 13.8207C29.2123 13.7866 29.2345 13.7422 29.2419 13.6948C29.2434 13.6829 29.2419 13.6711 29.2404 13.6592L28.5901 11.7096C28.5856 11.6992 28.5797 11.6888 28.5708 11.68C28.5501 11.6592 28.5249 11.6444 28.4982 11.634C28.4701 11.6222 28.4404 11.6163 28.4108 11.6177C28.4019 11.6177 28.393 11.6192 28.3841 11.6222L28.2197 11.677L28.0004 11.0444C28.4286 10.8992 28.8612 10.7629 29.2953 10.6355L30.1723 13.5229L30.5145 13.4237L30.6938 14.0414C30.1886 14.1822 29.6864 14.3377 29.1901 14.5051L28.9827 13.8963M26.4212 14.8696L26.596 14.7955C26.6108 14.7881 26.6256 14.7777 26.636 14.7644C26.6656 14.7274 26.6834 14.6829 26.6879 14.637C26.6879 14.6237 26.6879 14.6118 26.6834 14.6L25.8804 12.7081C25.876 12.6977 25.8686 12.6874 25.8597 12.68C25.8375 12.6622 25.8138 12.6488 25.7871 12.64C25.7575 12.6296 25.7264 12.6266 25.6967 12.6296C25.6879 12.6296 25.679 12.6326 25.6716 12.6355L25.4849 12.7155L25.2153 12.1022C25.8804 11.8133 26.556 11.5481 27.239 11.3066L27.4716 11.9333L27.276 12.0044C27.2627 12.0103 27.2493 12.0192 27.239 12.0296C27.2064 12.0637 27.1841 12.1066 27.1753 12.1525C27.1723 12.1659 27.1738 12.1777 27.1753 12.1911L27.1782 12.1985L27.9056 14.1155C27.9101 14.1274 27.9175 14.1377 27.9264 14.1466C27.953 14.1703 27.9841 14.1896 28.0182 14.2C28.0375 14.2059 28.0582 14.2103 28.0775 14.2088C28.0849 14.2088 28.0938 14.2074 28.1012 14.2044L28.2849 14.1377L28.5056 14.7422C27.8893 14.96 27.2804 15.1985 26.6804 15.4592L26.4271 14.8696M24.3708 16.5526L24.0553 15.9511L24.2049 15.8726C24.2864 15.834 24.3604 15.7837 24.4286 15.7229C24.4701 15.6859 24.5027 15.637 24.5204 15.5837C24.5353 15.5288 24.5323 15.4711 24.5101 15.4177C24.5056 15.4059 24.4997 15.3925 24.4938 15.3807C24.4701 15.3288 24.4286 15.2859 24.3753 15.2607C24.3293 15.2414 24.279 15.2311 24.2271 15.2325C24.1382 15.2355 24.0508 15.2474 23.9634 15.2681L23.6967 15.3318C23.4893 15.3896 23.2775 15.4207 23.0627 15.4281C22.8212 15.4355 22.5856 15.3496 22.4049 15.1896C22.3027 15.0963 22.2167 14.9851 22.1486 14.8637C22.0316 14.6726 21.9753 14.4503 21.9901 14.2281C22.0182 13.9896 22.1249 13.7674 22.2938 13.597C22.4745 13.4103 22.6849 13.2577 22.919 13.1437C23.0286 13.0844 23.1427 13.0355 23.2612 12.9985L23.2938 12.9896L23.593 13.5763L23.476 13.6355C23.3901 13.6755 23.3101 13.7274 23.236 13.7866C23.196 13.8192 23.1619 13.8622 23.1397 13.9096C23.116 13.9629 23.116 14.0251 23.1382 14.0785C23.1441 14.0948 23.1516 14.1096 23.159 14.1259C23.1886 14.1851 23.2404 14.2311 23.3041 14.2503C23.3575 14.2651 23.4138 14.2696 23.4686 14.2622C23.5664 14.2503 23.6642 14.2311 23.7604 14.2059L23.8316 14.1896C24.0982 14.1214 24.3708 14.0814 24.6464 14.0725C24.8049 14.0681 24.9619 14.0977 25.1071 14.1629C25.2553 14.237 25.3797 14.3555 25.4627 14.4992C25.4967 14.5555 25.5279 14.6133 25.5545 14.674C25.6567 14.88 25.7041 15.1096 25.6893 15.3392C25.6627 15.5733 25.556 15.7911 25.3886 15.9555C25.2019 16.1407 24.9856 16.2933 24.7471 16.4059C24.6286 16.4696 24.5012 16.5185 24.3708 16.5511M23.753 13.4992L23.4567 12.9096L24.3916 12.4666L24.8434 13.4281L24.0419 13.8074L23.7545 13.4992M23.9071 16.0281L24.2256 16.6281L23.393 17.0814L22.8241 16.077L23.5842 15.6607L23.9086 16.0266" fill="white"/>
<path d="M40 80C50.6044 79.9882 60.7719 75.7704 68.2711 68.2711C75.7704 60.7719 79.9882 50.6059 80 40C79.9882 29.3956 75.7704 19.2281 68.2711 11.7289C60.7719 4.22963 50.6044 0.0118519 40 0C29.3956 0.0118519 19.2281 4.22963 11.7289 11.7289C4.22963 19.2281 0.0118519 29.3956 0 40C0.0118519 50.6044 4.22963 60.7719 11.7289 68.2711C19.2281 75.7704 29.3956 79.9882 40 80ZM40 2.17778C50.0281 2.18963 59.6415 6.17778 66.7318 13.2681C73.8222 20.3585 77.8104 29.9719 77.8222 40C77.8104 50.0281 73.8222 59.6415 66.7318 66.7318C59.6415 73.8222 50.0281 77.8104 40 77.8222C29.9719 77.8104 20.3585 73.8222 13.2681 66.7318C6.17778 59.6415 2.18963 50.0281 2.17778 40C2.18963 29.9719 6.17778 20.3585 13.2681 13.2681C20.3585 6.17778 29.9719 2.18963 40 2.17778Z" fill="white"/>
<path d="M66.9851 37.0444C66.8414 37.5763 66.7184 38.1141 66.6162 38.6563C68.1347 37.363 69.2429 35.6548 69.8058 33.7422C70.0132 33.0741 70.1051 32.3748 70.0784 31.6741C70.0666 31.4489 70.0192 31.2252 69.9347 31.0163C69.8829 30.8904 69.8162 30.7719 69.7347 30.6622C69.6947 30.6089 69.6458 30.563 69.5881 30.5274C69.514 30.483 69.4236 30.477 69.3451 30.5126C69.2932 30.5363 69.2444 30.5689 69.2044 30.6089C69.1273 30.683 69.0607 30.7659 69.0044 30.8548C68.8266 31.1437 68.6769 31.4504 68.5584 31.7674C67.9347 33.4948 67.4103 35.2563 66.9866 37.043" fill="white"/>
<path d="M58.194 38.8029L59.554 33.0666C59.6725 32.5407 59.8429 32.0281 60.0651 31.5377L60.0088 31.391C59.9407 31.277 59.8636 31.1703 59.7762 31.071C59.7125 30.997 59.637 30.9362 59.5525 30.8888C59.4696 30.8429 59.3718 30.831 59.2799 30.8562C59.1984 30.8814 59.1244 30.9259 59.0636 30.9866C58.9688 31.0799 58.8858 31.1851 58.8177 31.3007C58.634 31.6162 58.4799 31.9496 58.3584 32.2933C57.7896 33.9703 57.3007 35.674 56.8918 37.397L56.517 38.9125C56.1703 40.2666 55.9333 41.6459 55.8103 43.0384C55.7895 43.3036 55.797 43.5703 55.8325 43.834C55.8429 43.9081 55.8636 43.9807 55.8933 44.0488C55.9081 44.0829 55.9288 44.114 55.957 44.1407C55.9777 44.1614 56.0058 44.1747 56.0355 44.1792C56.0666 44.1836 56.0992 44.1792 56.1288 44.1659C56.1777 44.1451 56.2221 44.1155 56.2607 44.0784C56.3377 44.0073 56.4073 43.9273 56.4681 43.8414C56.6162 43.6325 56.7451 43.4103 56.8518 43.1762C57.3288 42.0844 57.7036 40.9496 57.9703 39.7881L58.0266 39.4607L58.114 39.114C58.1155 39.0784 58.1244 39.0444 58.1407 39.0118V38.9851C58.151 38.9214 58.1703 38.8607 58.197 38.8014" fill="white"/>
<path d="M49.8017 33.3777C49.9187 32.8518 50.0906 32.3392 50.3128 31.8488V31.8429C50.3113 31.834 50.3083 31.8266 50.3054 31.8192L50.2906 31.7881C50.2861 31.7792 50.2846 31.7703 50.2846 31.7614C50.215 31.6473 50.135 31.5407 50.0461 31.4414C49.9809 31.3673 49.9039 31.3066 49.818 31.2592C49.7335 31.2133 49.6343 31.2014 49.5424 31.2266C49.4609 31.2518 49.3854 31.2962 49.3246 31.357C49.2298 31.4503 49.1454 31.5555 49.0772 31.6696C48.8935 31.9836 48.7395 32.3155 48.618 32.6592C48.0491 34.3303 47.5543 36.0251 47.138 37.7392C46.7928 39.0592 46.5232 40.3984 46.3306 41.7495C46.2269 42.4192 46.1883 43.0962 46.2195 43.7733C46.2283 43.9407 46.258 44.1066 46.3069 44.2681C46.3261 44.3347 46.3587 44.3984 46.4002 44.4533C46.4269 44.4888 46.4609 44.5155 46.5024 44.5318C46.5483 44.5466 46.5987 44.5451 46.6446 44.5273C46.6965 44.5066 46.7439 44.477 46.7854 44.4399C46.8654 44.3688 46.935 44.2903 46.9972 44.2029C47.0283 44.1599 47.0595 44.114 47.0876 44.0681C47.258 43.7614 47.3943 43.437 47.4906 43.1007C47.8209 41.9125 48.1113 40.7125 48.3572 39.5051L48.4032 39.3184C48.4269 39.1999 48.4595 39.0814 48.498 38.9658L49.8017 33.3792" fill="white"/>
<path d="M19.1482 37.351L20.6119 32.394C21.006 31.0458 21.2993 29.6696 21.4904 28.2784C21.5304 27.9584 21.5349 27.6355 21.5023 27.3155C21.489 27.1999 21.4579 27.0873 21.4105 26.9821C21.3838 26.9244 21.3438 26.8725 21.2949 26.831C21.2238 26.7762 21.1349 26.751 21.0475 26.7629C20.9601 26.7733 20.8742 26.797 20.7942 26.837C20.6475 26.9096 20.5127 27.0073 20.3986 27.1258C20.1704 27.3688 19.9764 27.6414 19.8223 27.9362C19.3897 28.7955 19.0593 29.7036 18.8386 30.6399C18.3156 32.6503 18.0816 34.7244 18.1408 36.7999C18.1586 37.2384 18.2297 37.671 18.3542 38.0918C18.4356 38.3629 18.5393 38.6266 18.6653 38.8799L19.1467 37.3525" fill="white"/>
</g>
<defs>
<clipPath id="clip0_77_16598">
<rect width="80" height="80" fill="white"/>
</clipPath>
</defs>
</svg>
