<svg width="38" height="38" viewBox="0 0 38 38" fill="none" xmlns="http://www.w3.org/2000/svg">
<path d="M10.953 30.141L10.45 29.1046L24.5324 27.55L27.55 29.1046L27.0471 30.6591L22.0177 32.7319L17.9941 33.25L10.953 30.141Z" fill="#59BCAB"/>
<path d="M19 33.25C26.8701 33.25 33.25 26.8701 33.25 19C33.25 11.1299 26.8701 4.75 19 4.75C11.1299 4.75 4.75 11.1299 4.75 19C4.75 26.8701 11.1299 33.25 19 33.25Z" stroke="#3F3F3F" stroke-width="2" stroke-linecap="round" stroke-linejoin="round"/>
<path d="M19 20.5834C21.6234 20.5834 23.75 18.4567 23.75 15.8334C23.75 13.21 21.6234 11.0834 19 11.0834C16.3766 11.0834 14.25 13.21 14.25 15.8334C14.25 18.4567 16.3766 20.5834 19 20.5834Z" fill="#59BCAB" stroke="#3F3F3F" stroke-width="2" stroke-linecap="round" stroke-linejoin="round"/>
<path d="M9.76599 29.8443C10.1579 28.54 10.9598 27.3967 12.0527 26.5842C13.1457 25.7716 14.4714 25.333 15.8333 25.3334H22.1667C23.5303 25.3329 24.8577 25.7726 25.9514 26.587C27.0452 27.4015 27.8468 28.5472 28.2372 29.8538" fill="#59BCAB"/>
<path d="M9.76599 29.8443C10.1579 28.54 10.9598 27.3967 12.0527 26.5842C13.1457 25.7716 14.4714 25.333 15.8333 25.3334H22.1667C23.5303 25.3329 24.8577 25.7726 25.9514 26.587C27.0452 27.4015 27.8468 28.5472 28.2372 29.8538" stroke="#3F3F3F" stroke-width="2" stroke-linecap="round" stroke-linejoin="round"/>
</svg>
